<?xml version="1.0" encoding="utf-8"?>
<!-- Generator: Adobe Illustrator 27.1.1, SVG Export Plug-In . SVG Version: 6.00 Build 0)  -->
<svg version="1.1" id="Layer_1" xmlns="http://www.w3.org/2000/svg" xmlns:xlink="http://www.w3.org/1999/xlink" x="0px" y="0px"
	 viewBox="0 0 48 48" style="enable-background:new 0 0 48 48;" xml:space="preserve">
<style type="text/css">
	.st0{fill:#1477BD;}
	.st1{fill:#FFFFFF;}
	.st2{fill:#F9F9F9;}
	.st3{fill:#D8D8D8;}
	.st4{fill:#E2E2E2;}
</style>
<g>
	<circle class="st0" cx="24" cy="23.4" r="23"/>
</g>
<g>
	<path class="st1" d="M30.6,7.3c0.1,0,0.3,0.1,0.4,0.1c2.4,0.5,4.1,2.5,4.1,5.1c0,2.5,0,5,0,7.5c0,0.7-0.3,1.2-0.8,1.3
		c-0.5,0.2-1.1,0-1.4-0.4c-0.2-0.3-0.3-0.6-0.3-1c0-2.4,0-4.9,0-7.3c0-0.9-0.3-1.6-1-2.2c-0.5-0.4-1-0.5-1.6-0.5
		c-5.1,0-10.3,0-15.4,0c-1.4,0-2.4,1-2.5,2.4c0,0.1,0,0.2,0,0.3c0,7.3,0,14.5,0,21.8c0,0.9,0.3,1.6,1,2.2c0.5,0.4,1,0.5,1.6,0.5
		c1.4,0,2.7,0,4.1,0c0.6,0,1,0.3,1.2,0.9c0.2,0.5,0,1.1-0.4,1.4c-0.2,0.2-0.6,0.3-0.8,0.3c-1.4,0-2.8,0-4.2,0
		c-2.8,0-5.1-2.3-5.1-5.2c0-4.2,0-8.5,0-12.7c0-3,0-6.1,0-9.1c0-2,0.8-3.5,2.5-4.5c0.5-0.3,1.2-0.4,1.7-0.6c0.1,0,0.2,0,0.2-0.1
		C19.6,7.3,25.1,7.3,30.6,7.3z"/>
	<path class="st1" d="M38.5,28.2c0,1.1-0.4,2-1.1,2.7c-2.3,2.3-4.5,4.5-6.8,6.8c-0.2,0.2-0.5,0.4-0.8,0.5c-1.6,0.5-3.2,0.9-4.8,1.3
		c-0.8,0.2-1.5-0.1-1.7-0.8c-0.1-0.3-0.1-0.6,0-0.8c0.5-1.6,1-3.2,1.5-4.8c0.1-0.3,0.2-0.5,0.4-0.7c2.3-2.3,4.5-4.5,6.8-6.8
		c1.1-1.1,2.4-1.4,3.9-1c1.4,0.5,2.3,1.5,2.6,2.9c0,0.1,0,0.1,0,0.2C38.5,27.9,38.5,28.1,38.5,28.2z M26.4,36.5
		c0.8-0.2,1.6-0.4,2.3-0.6c0.2,0,0.3-0.1,0.4-0.3c1.4-1.4,2.8-2.8,4.2-4.2c0.1-0.1,0.1-0.1,0.2-0.2c-0.6-0.6-1.2-1.2-1.8-1.8
		c0,0-0.1,0-0.1,0.1c-1.5,1.5-3,3-4.4,4.4c-0.1,0.1-0.1,0.1-0.1,0.2C26.8,34.9,26.6,35.6,26.4,36.5z M35.4,29.3
		c0.5-0.3,0.7-0.8,0.6-1.4c-0.1-0.5-0.5-0.8-1-0.9c-0.5-0.1-1,0.1-1.3,0.6C34.2,28.2,34.8,28.7,35.4,29.3z"/>
	<path class="st2" d="M22.3,14.8c2.1,0,4.3,0,6.4,0c0.9,0,1.6,0.9,1.2,1.7c-0.2,0.5-0.6,0.8-1.1,0.8c-0.1,0-0.2,0-0.3,0
		c-4.2,0-8.5,0-12.7,0c-0.8,0-1.3-0.5-1.4-1.2c-0.1-0.8,0.5-1.4,1.3-1.4c1.6,0,3.2,0,4.8,0C21.2,14.8,21.8,14.8,22.3,14.8z"/>
	<path class="st2" d="M22.3,22.4c-2.1,0-4.3,0-6.4,0c-0.9,0-1.4-0.6-1.3-1.4c0.1-0.6,0.5-1,1.1-1.1c0.1,0,0.2,0,0.3,0
		c4.2,0,8.5,0,12.7,0c0.8,0,1.4,0.5,1.4,1.2c0,0.7-0.5,1.3-1.3,1.3c-1.3,0-2.6,0-4,0C24,22.4,23.1,22.4,22.3,22.4z"/>
	<path class="st2" d="M19.8,27.5c-1.3,0-2.6,0-3.9,0c-0.8,0-1.4-0.7-1.3-1.5c0.1-0.6,0.6-1,1.3-1c1.3,0,2.5,0,3.8,0c1.3,0,2.6,0,4,0
		c0.8,0,1.4,0.7,1.3,1.5c-0.1,0.6-0.6,1-1.3,1C22.4,27.5,21.1,27.5,19.8,27.5z"/>
	<path class="st3" d="M26.4,36.5c0.3-0.8,0.5-1.6,0.7-2.4c0-0.1,0.1-0.1,0.1-0.2c1.5-1.5,3-3,4.4-4.4c0,0,0.1-0.1,0.1-0.1
		c0.6,0.6,1.2,1.2,1.8,1.8c-0.1,0.1-0.1,0.1-0.2,0.2c-1.4,1.4-2.8,2.8-4.2,4.2c-0.1,0.1-0.3,0.2-0.4,0.3
		C27.9,36.1,27.2,36.3,26.4,36.5z"/>
	<path class="st4" d="M35.4,29.3c-0.6-0.6-1.2-1.2-1.7-1.7c0.3-0.5,0.8-0.7,1.3-0.6c0.5,0.1,0.9,0.4,1,0.9
		C36.1,28.5,35.8,29,35.4,29.3z"/>
</g>
</svg>
