<?xml version="1.0" encoding="utf-8"?>
<!-- Generator: Adobe Illustrator 27.1.1, SVG Export Plug-In . SVG Version: 6.00 Build 0)  -->
<svg version="1.1" id="Layer_1" xmlns="http://www.w3.org/2000/svg" xmlns:xlink="http://www.w3.org/1999/xlink" x="0px" y="0px"
	 viewBox="0 0 48 48" style="enable-background:new 0 0 48 48;" xml:space="preserve">
<style type="text/css">
	.st0{fill:#1477BD;}
	.st1{fill:#D1D1D1;}
	.st2{fill:#FFFFFF;}
</style>
<g>
	<circle class="st0" cx="24" cy="23.4" r="23"/>
</g>
<g>
	<path class="st1" d="M30,8.6c0.1,0.1,0.3,0.2,0.4,0.3c2.4,2.5,4.8,5,7.3,7.5c0.3,0.3,0.4,0.5,0.4,0.9c0,6.2,0,12.3,0,18.5
		c0,1-0.4,1.8-1.3,2.2c-0.3,0.2-0.7,0.2-1.1,0.2c-5.7,0-11.3,0-17,0c-1.4,0-2.4-1-2.4-2.4c0-1.6,0-3.1,0-4.7c0-0.1,0-0.2,0-0.3
		c-0.1,0-0.2,0-0.3,0c-1.4,0-2.7,0-4.1,0c-1.2,0-1.9-0.7-1.9-1.9c0-2.8,0-5.5,0-8.3c0-1.2,0.7-1.9,1.9-1.9c1.4,0,2.7,0,4.1,0
		c0.1,0,0.2,0,0.4,0c0-0.1,0-0.2,0-0.4c0-2.5,0-5,0-7.5c0-1,0.4-1.8,1.3-2.2c0.2-0.1,0.5-0.2,0.7-0.2C22.2,8.6,26.1,8.6,30,8.6z
		 M28.9,9.7c-0.1,0-0.2,0-0.3,0c-3.3,0-6.5,0-9.8,0c-0.9,0-1.3,0.4-1.3,1.3c0,2.5,0,5,0,7.5c0,0.1,0,0.2,0,0.3c0.2,0,0.3,0,0.4,0
		c3,0,6.1,0,9.1,0c1.2,0,1.9,0.7,1.9,1.9c0,2.7,0,5.5,0,8.2c0,0.2,0,0.4-0.1,0.6c-0.2,0.8-0.9,1.3-1.8,1.3c-3.1,0-6.2,0-9.2,0
		c-0.1,0-0.2,0-0.4,0c0,0.1,0,0.2,0,0.3c0,1.5,0,3.1,0,4.6c0,0.9,0.4,1.3,1.3,1.3c5.6,0,11.2,0,16.7,0c0.9,0,1.3-0.4,1.3-1.4
		c0-5.9,0-11.8,0-17.7c0-0.1,0-0.2,0-0.3c-0.2,0-0.3,0-0.4,0c-2.3,0-4.5,0-6.8,0c-0.7,0-0.8-0.2-0.8-0.8c0-2.3,0-4.5,0-6.8
		C28.9,10,28.9,9.9,28.9,9.7z M19.4,29.7c2.5,0,5,0,7.5,0c0.7,0,0.8-0.2,0.8-0.8c0-2.7,0-5.4,0-8c0-0.7-0.2-0.8-0.8-0.8
		c-5,0-10,0-14.9,0c-0.6,0-0.8,0.2-0.8,0.8c0,2.7,0,5.4,0,8.1c0,0.6,0.2,0.8,0.8,0.8C14.4,29.7,16.9,29.7,19.4,29.7z M30,10.1
		c0,2.2,0,4.3,0,6.4c2.1,0,4.1,0,6.2,0C34.1,14.4,32.1,12.3,30,10.1z"/>
	<path class="st2" d="M28.9,9.7c0,0.2,0,0.3,0,0.4c0,2.3,0,4.5,0,6.8c0,0.7,0.2,0.8,0.8,0.8c2.3,0,4.5,0,6.8,0c0.1,0,0.2,0,0.4,0
		c0,0.1,0,0.2,0,0.3c0,5.9,0,11.8,0,17.7c0,0.9-0.4,1.4-1.3,1.4c-5.6,0-11.2,0-16.7,0c-0.9,0-1.3-0.4-1.3-1.3c0-1.5,0-3.1,0-4.6
		c0-0.1,0-0.2,0-0.3c0.1,0,0.3,0,0.4,0c3.1,0,6.2,0,9.2,0c0.9,0,1.6-0.5,1.8-1.3c0.1-0.2,0.1-0.4,0.1-0.6c0-2.7,0-5.5,0-8.2
		c0-1.2-0.7-1.9-1.9-1.9c-3,0-6.1,0-9.1,0c-0.1,0-0.2,0-0.4,0c0-0.1,0-0.2,0-0.3c0-2.5,0-5,0-7.5c0-0.9,0.4-1.3,1.3-1.3
		c3.3,0,6.5,0,9.8,0C28.6,9.7,28.7,9.7,28.9,9.7z"/>
	<path class="st2" d="M19.4,29.7c-2.5,0-5,0-7.5,0c-0.6,0-0.8-0.2-0.8-0.8c0-2.7,0-5.4,0-8.1c0-0.6,0.2-0.8,0.8-0.8c5,0,10,0,14.9,0
		c0.7,0,0.8,0.2,0.8,0.8c0,2.7,0,5.4,0,8c0,0.7-0.2,0.8-0.8,0.8C24.4,29.7,21.9,29.7,19.4,29.7z M17.9,27.5c0.9,0,1.7,0,2.6-0.1
		c0.6-0.1,1-0.4,1.3-1c0.4-0.8,0.4-1.7,0.1-2.5c-0.2-0.7-0.7-1.2-1.4-1.3c-0.8-0.1-1.6,0-2.5-0.1c0,0,0,0,0,0
		C17.9,24.2,17.9,25.8,17.9,27.5z M14.4,25.6c0.3,0,0.5,0,0.7,0c0.3,0,0.5,0,0.8-0.1c0.6-0.1,1.1-0.5,1.2-1.1
		c0.2-0.7-0.1-1.4-0.6-1.7c-0.1-0.1-0.2-0.1-0.4-0.2c-0.9-0.1-1.8-0.1-2.7-0.1c0,1.7,0,3.3,0,4.9c0.3,0,0.6,0,1,0
		C14.4,26.8,14.4,26.2,14.4,25.6z M23.9,23.3c0.8,0,1.6,0,2.4,0c0-0.3,0-0.5,0-0.8c-1.1,0-2.2,0-3.3,0c0,1.6,0,3.3,0,4.9
		c0.3,0,0.6,0,1,0c0-0.7,0-1.4,0-2.1c0.7,0,1.4,0,2,0c0-0.3,0-0.5,0-0.8c-0.7,0-1.3,0-2,0C23.9,24.1,23.9,23.8,23.9,23.3z"/>
	<path class="st2" d="M30,10.1c2.1,2.2,4.1,4.3,6.2,6.4c-2.1,0-4.1,0-6.2,0C30,14.4,30,12.3,30,10.1z"/>
	<g>
		<path class="st0" d="M17.9,27.5c0-1.7,0-3.3,0-4.9c0,0,0,0,0,0c0.8,0,1.6,0,2.5,0.1c0.7,0.1,1.2,0.6,1.4,1.3
			c0.3,0.8,0.3,1.7-0.1,2.5c-0.3,0.5-0.7,0.9-1.3,1C19.7,27.4,18.8,27.4,17.9,27.5z M18.9,26.6c0.2,0,0.5,0,0.7,0c0.2,0,0.3,0,0.5,0
			c0.5-0.1,0.8-0.3,0.9-0.8c0.1-0.5,0.1-0.9,0-1.4c0-0.4-0.2-0.8-0.7-0.9c-0.4-0.1-0.9-0.1-1.3-0.1C18.9,24.5,18.9,25.5,18.9,26.6z"
			/>
	</g>
	<g>
		<path class="st0" d="M14.4,25.6c0,0.6,0,1.2,0,1.8c-0.3,0-0.7,0-1,0c0-1.6,0-3.2,0-4.9c0.9,0,1.8,0.1,2.7,0.1
			c0.1,0,0.3,0.1,0.4,0.2c0.5,0.3,0.8,1,0.6,1.7c-0.1,0.6-0.6,1-1.2,1.1c-0.2,0-0.5,0-0.8,0.1C14.9,25.6,14.6,25.6,14.4,25.6z
			 M14.4,24.8c0.4,0,0.8,0,1.2-0.1c0.3,0,0.5-0.3,0.5-0.6c0-0.3-0.2-0.6-0.5-0.6c-0.4,0-0.8,0-1.2,0C14.4,23.8,14.4,24.3,14.4,24.8z
			"/>
	</g>
	<g>
		<path class="st0" d="M23.9,23.3c0,0.4,0,0.8,0,1.2c0.7,0,1.3,0,2,0c0,0.3,0,0.5,0,0.8c-0.7,0-1.3,0-2,0c0,0.7,0,1.4,0,2.1
			c-0.3,0-0.6,0-1,0c0-1.6,0-3.2,0-4.9c1.1,0,2.2,0,3.3,0c0,0.3,0,0.5,0,0.8C25.5,23.3,24.7,23.3,23.9,23.3z"/>
	</g>
	<path class="st2" d="M18.9,26.6c0-1.2,0-2.3,0-3.5c0.5,0,0.9,0,1.3,0.1c0.5,0.1,0.7,0.5,0.7,1c0,0.5,0,1,0,1.5
		c-0.1,0.5-0.3,0.8-0.9,0.8c-0.2,0-0.3,0-0.5,0C19.4,26.6,19.2,26.6,18.9,26.6z"/>
	<path class="st2" d="M14.4,24.8c0-0.5,0-0.9,0-1.4c0.4,0,0.8,0,1.2,0c0.3,0,0.5,0.3,0.5,0.6c0,0.3-0.2,0.6-0.5,0.6
		C15.2,24.7,14.8,24.7,14.4,24.8z"/>
</g>
</svg>
